<?xml version="1.0" standalone="no"?><svg xmlns="http://www.w3.org/2000/svg" viewBox="0 0 1440 320"><path fill="white" fill-opacity="1" d="M0,96L17.1,112C34.3,128,69,160,103,165.3C137.1,171,171,149,206,149.3C240,149,274,171,309,176C342.9,181,377,171,411,186.7C445.7,203,480,245,514,266.7C548.6,288,583,288,617,256C651.4,224,686,160,720,154.7C754.3,149,789,203,823,202.7C857.1,203,891,149,926,117.3C960,85,994,75,1029,69.3C1062.9,64,1097,64,1131,80C1165.7,96,1200,128,1234,170.7C1268.6,213,1303,267,1337,261.3C1371.4,256,1406,192,1423,160L1440,128L1440,320L1422.9,320C1405.7,320,1371,320,1337,320C1302.9,320,1269,320,1234,320C1200,320,1166,320,1131,320C1097.1,320,1063,320,1029,320C994.3,320,960,320,926,320C891.4,320,857,320,823,320C788.6,320,754,320,720,320C685.7,320,651,320,617,320C582.9,320,549,320,514,320C480,320,446,320,411,320C377.1,320,343,320,309,320C274.3,320,240,320,206,320C171.4,320,137,320,103,320C68.6,320,34,320,17,320L0,320Z"></path></svg>